<?xml version="1.0" encoding="utf-8"?>
<!-- Generator: Adobe Illustrator 17.0.1, SVG Export Plug-In . SVG Version: 6.00 Build 0)  -->
<!DOCTYPE svg PUBLIC "-//W3C//DTD SVG 1.1//EN" "http://www.w3.org/Graphics/SVG/1.1/DTD/svg11.dtd">
<svg version="1.1" id="Livello_1" xmlns="http://www.w3.org/2000/svg" xmlns:xlink="http://www.w3.org/1999/xlink" x="0px" y="0px"
	 width="960px" height="560px" viewBox="0 0 960 560" enable-background="new 0 0 960 560" xml:space="preserve">
<rect x="379.5" y="178.5" fill="none" stroke="#000000" stroke-miterlimit="10" width="202" height="202"/>
<g>
	
		<rect x="510.5" y="295.5" transform="matrix(0.5279 0.8493 -0.8493 0.5279 526.9692 -304.061)" fill="#FF0000" width="53" height="53"/>
	<g>
		<path d="M529.779,357.739c-9.327-15.004-18.654-30.008-27.981-45.012c-0.179,0.684-0.359,1.368-0.538,2.052
			c15.004-9.327,30.008-18.654,45.012-27.98c-0.684-0.179-1.368-0.359-2.052-0.538c9.327,15.004,18.654,30.008,27.981,45.012
			c0.179-0.684,0.359-1.368,0.538-2.052c-15.004,9.327-30.008,18.654-45.012,27.98c-1.639,1.019-0.134,3.615,1.514,2.59
			c15.004-9.327,30.008-18.654,45.012-27.981c0.679-0.422,0.979-1.344,0.538-2.052c-9.327-15.004-18.654-30.008-27.98-45.012
			c-0.422-0.679-1.344-0.979-2.052-0.538c-15.004,9.327-30.008,18.654-45.012,27.981c-0.679,0.422-0.979,1.344-0.538,2.052
			c9.327,15.004,18.654,30.008,27.98,45.012C528.208,360.892,530.804,359.387,529.779,357.739z"/>
	</g>
</g>
<g>
	<rect x="472" y="263" fill="#10AA00" width="68" height="67"/>
	<g>
		<path d="M540.5,328c-22.667,0-45.333,0-68,0c0.5,0.5,1,1,1.5,1.5c0-22.333,0-44.667,0-67c-0.5,0.5-1,1-1.5,1.5
			c22.667,0,45.333,0,68,0c-0.5-0.5-1-1-1.5-1.5c0,22.333,0,44.667,0,67c0,1.935,3,1.935,3,0c0-22.333,0-44.667,0-67
			c0-0.818-0.682-1.5-1.5-1.5c-22.667,0-45.333,0-68,0c-0.818,0-1.5,0.682-1.5,1.5c0,22.333,0,44.667,0,67
			c0,0.818,0.682,1.5,1.5,1.5c22.667,0,45.333,0,68,0C542.435,331,542.435,328,540.5,328z"/>
	</g>
</g>
<g>
	
		<rect x="404.5" y="215.5" transform="matrix(0.8929 -0.4502 0.4502 0.8929 -69.8894 231.1717)" fill="#0000FF" width="93" height="94"/>
	<g>
		<path d="M512.924,282.235c-27.68,13.958-55.36,27.915-83.04,41.873c0.684,0.179,1.368,0.359,2.052,0.538
			c-14.108-27.978-28.215-55.955-42.323-83.933c-0.179,0.684-0.359,1.368-0.538,2.052c27.68-13.958,55.36-27.915,83.04-41.873
			c-0.684-0.179-1.368-0.359-2.052-0.538c14.108,27.978,28.215,55.955,42.323,83.933c0.871,1.728,3.459,0.208,2.59-1.514
			c-14.108-27.978-28.215-55.955-42.323-83.933c-0.384-0.762-1.359-0.888-2.052-0.538c-27.68,13.958-55.36,27.915-83.04,41.873
			c-0.762,0.384-0.888,1.359-0.538,2.052c14.108,27.978,28.215,55.955,42.323,83.933c0.384,0.762,1.359,0.888,2.052,0.538
			c27.68-13.958,55.36-27.915,83.04-41.873C516.166,283.954,514.647,281.366,512.924,282.235z"/>
	</g>
</g>
</svg>
