<?xml version="1.0" encoding="UTF-8" standalone="no"?>
<svg
   xmlns:dc="http://purl.org/dc/elements/1.1/"
   xmlns:cc="http://creativecommons.org/ns#"
   xmlns:rdf="http://www.w3.org/1999/02/22-rdf-syntax-ns#"
   xmlns:svg="http://www.w3.org/2000/svg"
   xmlns="http://www.w3.org/2000/svg"
   xmlns:sodipodi="http://sodipodi.sourceforge.net/DTD/sodipodi-0.dtd"
   xmlns:inkscape="http://www.inkscape.org/namespaces/inkscape"
   version="1.1"
   id="Livello_1"
   x="0px"
   y="0px"
   width="200"
   height="200"
   viewBox="0 0 200 200"
   enable-background="new 0 0 960 560"
   xml:space="preserve"
   inkscape:version="0.48.5 r10040"
   sodipodi:docname="logoblueblock.svg"
   inkscape:export-filename="/home/julian/Projects/blueblock-android/res/drawable-xxhdpi/ic_launcher.png"
   inkscape:export-xdpi="64.800003"
   inkscape:export-ydpi="64.800003"><metadata
     id="metadata33"><rdf:RDF><cc:Work
         rdf:about=""><dc:format>image/svg+xml</dc:format><dc:type
           rdf:resource="http://purl.org/dc/dcmitype/StillImage" /><dc:title></dc:title></cc:Work></rdf:RDF></metadata><defs
     id="defs31" /><sodipodi:namedview
     pagecolor="#ffffff"
     bordercolor="#666666"
     borderopacity="1"
     objecttolerance="10"
     gridtolerance="10"
     guidetolerance="10"
     inkscape:pageopacity="0"
     inkscape:pageshadow="2"
     inkscape:window-width="1362"
     inkscape:window-height="745"
     id="namedview29"
     showgrid="false"
     inkscape:zoom="1.8797255"
     inkscape:cx="31.84055"
     inkscape:cy="110.2235"
     inkscape:window-x="0"
     inkscape:window-y="19"
     inkscape:window-maximized="0"
     inkscape:current-layer="Livello_1" /><g
     id="g3057"><g
       transform="matrix(0.98522167,0,0,0.98522166,-373.39897,-175.36947)"
       id="g5"><rect
         style="fill:#ff0000"
         id="rect7"
         height="53"
         width="53"
         transform="matrix(0.5279,0.8493,-0.8493,0.5279,526.9692,-304.061)"
         y="295.5"
         x="510.5" /><g
         id="g9"><path
           inkscape:connector-curvature="0"
           id="path11"
           d="m 529.779,357.739 c -9.327,-15.004 -18.654,-30.008 -27.981,-45.012 -0.179,0.684 -0.359,1.368 -0.538,2.052 15.004,-9.327 30.008,-18.654 45.012,-27.98 -0.684,-0.179 -1.368,-0.359 -2.052,-0.538 9.327,15.004 18.654,30.008 27.981,45.012 0.179,-0.684 0.359,-1.368 0.538,-2.052 -15.004,9.327 -30.008,18.654 -45.012,27.98 -1.639,1.019 -0.134,3.615 1.514,2.59 15.004,-9.327 30.008,-18.654 45.012,-27.981 0.679,-0.422 0.979,-1.344 0.538,-2.052 -9.327,-15.004 -18.654,-30.008 -27.98,-45.012 -0.422,-0.679 -1.344,-0.979 -2.052,-0.538 -15.004,9.327 -30.008,18.654 -45.012,27.981 -0.679,0.422 -0.979,1.344 -0.538,2.052 9.327,15.004 18.654,30.008 27.98,45.012 1.019,1.639 3.615,0.134 2.59,-1.514 z" /></g></g><g
       transform="matrix(0.98522167,0,0,0.98522166,-373.39897,-175.36947)"
       id="g13"><rect
         style="fill:#10aa00"
         id="rect15"
         height="67"
         width="68"
         y="263"
         x="472" /><g
         id="g17"><path
           inkscape:connector-curvature="0"
           id="path19"
           d="m 540.5,328 c -22.667,0 -45.333,0 -68,0 0.5,0.5 1,1 1.5,1.5 0,-22.333 0,-44.667 0,-67 -0.5,0.5 -1,1 -1.5,1.5 22.667,0 45.333,0 68,0 -0.5,-0.5 -1,-1 -1.5,-1.5 0,22.333 0,44.667 0,67 0,1.935 3,1.935 3,0 0,-22.333 0,-44.667 0,-67 0,-0.818 -0.682,-1.5 -1.5,-1.5 -22.667,0 -45.333,0 -68,0 -0.818,0 -1.5,0.682 -1.5,1.5 0,22.333 0,44.667 0,67 0,0.818 0.682,1.5 1.5,1.5 22.667,0 45.333,0 68,0 1.935,0 1.935,-3 0,-3 z" /></g></g><g
       transform="matrix(0.98522167,0,0,0.98522166,-373.39897,-175.36947)"
       id="g21"><rect
         style="fill:#0000ff"
         id="rect23"
         height="94"
         width="93"
         transform="matrix(0.8929,-0.4502,0.4502,0.8929,-69.8894,231.1717)"
         y="215.5"
         x="404.5" /><g
         id="g25"><path
           inkscape:connector-curvature="0"
           id="path27"
           d="m 512.924,282.235 c -27.68,13.958 -55.36,27.915 -83.04,41.873 0.684,0.179 1.368,0.359 2.052,0.538 -14.108,-27.978 -28.215,-55.955 -42.323,-83.933 -0.179,0.684 -0.359,1.368 -0.538,2.052 27.68,-13.958 55.36,-27.915 83.04,-41.873 -0.684,-0.179 -1.368,-0.359 -2.052,-0.538 14.108,27.978 28.215,55.955 42.323,83.933 0.871,1.728 3.459,0.208 2.59,-1.514 -14.108,-27.978 -28.215,-55.955 -42.323,-83.933 -0.384,-0.762 -1.359,-0.888 -2.052,-0.538 -27.68,13.958 -55.36,27.915 -83.04,41.873 -0.762,0.384 -0.888,1.359 -0.538,2.052 14.108,27.978 28.215,55.955 42.323,83.933 0.384,0.762 1.359,0.888 2.052,0.538 27.68,-13.958 55.36,-27.915 83.04,-41.873 1.728,-0.871 0.209,-3.459 -1.514,-2.59 z" /></g></g></g></svg>